<svg xmlns="http://www.w3.org/2000/svg" width="20" height="21" viewBox="0 0 20.9 20"><defs><style>.cls-1{fill:#ffdb1c;}</style></defs><g id="Слой_2" data-name="Слой 2"><g id="Слой_1-2" data-name="Слой 1"><path class="cls-1" d="M20.52,8.83l-4.13,4,1,5.68a1.26,1.26,0,0,1-1.82,1.32l-5.1-2.69L5.34,19.86a1.25,1.25,0,0,1-1.81-1.32l1-5.68-4.13-4A1.25,1.25,0,0,1,1.07,6.7l5.71-.83L9.33.7a1.25,1.25,0,0,1,2.24,0l2.55,5.17,5.71.83A1.25,1.25,0,0,1,20.52,8.83Zm-2.21-.46-5.43-.79L10.45,2.66,8,7.58l-5.43.79L6.52,12.2l-.93,5.41,4.86-2.55,4.85,2.55-.92-5.41Z"/></g></g></svg>