<svg width="24" height="24" viewBox="0 0 24 24" fill="none" xmlns="http://www.w3.org/2000/svg">
<g clip-path="url(#clip0)">
<path d="M14.6301 14.0973L15.0125 15.9156C15.4539 18.0147 15.5255 20.1747 15.2241 22.2984C15.0987 23.1823 14.3419 23.8393 13.4491 23.8393C12.4028 23.8393 11.5788 22.947 11.6619 21.904L11.7122 21.2728C11.8149 19.9848 11.6542 18.6894 11.2401 17.4656L10.9649 16.6525C10.945 16.5936 10.9243 16.535 10.9029 16.4768C10.0686 14.2044 7.87011 12.7212 5.4494 12.7212H3.9198V0.922324C4.59175 0.922324 5.25891 1.03569 5.89312 1.25757C7.0886 1.67588 8.38714 1.70698 9.5982 1.33611C12.5296 0.438465 15.5813 -0.234005 18.5309 0.425807L20.8725 0.949665V14.0973H14.6301V14.0973Z" fill="url(#paint0_linear)"/>
<path d="M7.79425 1.59361L7.79373 1.59309C7.15025 1.58481 6.50808 1.4729 5.89316 1.25775C5.25891 1.03582 4.59175 0.922455 3.9198 0.922455V12.7214H5.44945C7.87015 12.7214 10.0686 14.2046 10.9029 16.477C10.9243 16.5352 10.9449 16.5938 10.9649 16.6527L11.24 17.4657C11.6542 18.6896 11.8149 19.985 11.7122 21.2729L11.6619 21.9041C11.5787 22.9472 12.4027 23.8394 13.449 23.8394C14.3419 23.8394 15.0986 23.1825 15.2241 22.2985C15.5254 20.1748 15.4538 18.0149 15.0124 15.9158L14.63 14.0974H20.2981L7.79425 1.59361Z" fill="url(#paint1_linear)"/>
<path d="M8.7206 5.85925C13.5924 5.85925 17.6297 9.43022 18.3589 14.0973H14.6301L15.0125 15.9157C15.4539 18.0147 15.5255 20.1747 15.2242 22.2984C15.1684 22.6915 14.9873 23.0392 14.7254 23.3046C14.5782 23.4198 14.4273 23.5304 14.2734 23.6371C14.0254 23.7658 13.7452 23.8393 13.4492 23.8393C12.4028 23.8393 11.5789 22.947 11.662 21.904L11.7123 21.2728C11.815 19.9848 11.6543 18.6894 11.2402 17.4656L10.965 16.6525C10.945 16.5936 10.9244 16.535 10.903 16.4768C10.0686 14.2044 7.8702 12.7212 5.44949 12.7212H3.9198V7.12085C5.33726 6.31803 6.97524 5.85925 8.7206 5.85925Z" fill="url(#paint2_linear)"/>
<path d="M14.9911 14.4242L14.8821 14.3998C13.0588 13.9914 13.0588 10.761 14.8821 10.3526L14.9911 10.3282C17.2778 9.81594 19.6205 9.81594 21.9072 10.3282C23.7525 10.7415 23.7525 14.0108 21.9072 14.4242C19.6205 14.9365 17.2778 14.9365 14.9911 14.4242Z" fill="url(#paint3_linear)"/>
<path d="M15.6286 4.08927L15.54 4.06941C14.0575 3.73731 14.0575 1.11063 15.54 0.778536L15.6286 0.758677C17.488 0.34216 19.3929 0.34216 21.2522 0.758677C22.7527 1.09477 22.7527 3.75313 21.2522 4.08922C19.3929 4.50578 17.488 4.50578 15.6286 4.08927Z" fill="url(#paint4_linear)"/>
<path d="M14.9911 7.87564L14.8821 7.85122C13.0588 7.44279 13.0588 4.21244 14.8821 3.80402L14.9911 3.77959C17.2778 3.26736 19.6205 3.26736 21.9072 3.77959C23.7525 4.19291 23.7525 7.46223 21.9072 7.87559C19.6205 8.38788 17.2778 8.38788 14.9911 7.87564Z" fill="url(#paint5_linear)"/>
<path d="M14.4963 10.8322L14.3715 10.8104C12.2839 10.4464 12.2839 7.56699 14.3715 7.20294L14.4963 7.1812C17.1147 6.72463 19.797 6.72463 22.4154 7.1812H22.4154C24.5283 7.54962 24.5283 10.4637 22.4154 10.8322C19.797 11.2888 17.1147 11.2888 14.4963 10.8322Z" fill="url(#paint6_linear)"/>
<path d="M6.44212 13.5364H1.39755C0.625694 13.5364 0 12.9107 0 12.1389V1.94766C0 1.1758 0.625694 0.55011 1.39755 0.55011H6.44212C7.21398 0.55011 7.83967 1.1758 7.83967 1.94766V12.1389C7.83967 12.9107 7.21398 13.5364 6.44212 13.5364Z" fill="url(#paint7_linear)"/>
</g>
<defs>
<linearGradient id="paint0_linear" x1="6.86733" y1="9.76468" x2="21.6195" y2="13.5763" gradientUnits="userSpaceOnUse">
<stop stop-color="#FCCECE"/>
<stop offset="1" stop-color="#FBA5C2"/>
</linearGradient>
<linearGradient id="paint1_linear" x1="13.8951" y1="13.8279" x2="-6.71559" y2="7.12236" gradientUnits="userSpaceOnUse">
<stop stop-color="#FCCECE" stop-opacity="0"/>
<stop offset="1" stop-color="#BB4966"/>
</linearGradient>
<linearGradient id="paint2_linear" x1="10.7672" y1="14.1994" x2="23.6678" y2="5.08838" gradientUnits="userSpaceOnUse">
<stop stop-color="#FCCECE" stop-opacity="0"/>
<stop offset="1" stop-color="#BB4966"/>
</linearGradient>
<linearGradient id="paint3_linear" x1="18.4029" y1="13.6714" x2="18.4029" y2="9.48469" gradientUnits="userSpaceOnUse">
<stop stop-color="#FCCECE"/>
<stop offset="1" stop-color="#FBA5C2"/>
</linearGradient>
<linearGradient id="paint4_linear" x1="18.3683" y1="3.13896" x2="18.5243" y2="-0.0866876" gradientUnits="userSpaceOnUse">
<stop stop-color="#FCCECE"/>
<stop offset="1" stop-color="#FBA5C2"/>
</linearGradient>
<linearGradient id="paint5_linear" x1="18.377" y1="6.22359" x2="18.5844" y2="3.0602" gradientUnits="userSpaceOnUse">
<stop stop-color="#FCCECE"/>
<stop offset="1" stop-color="#FBA5C2"/>
</linearGradient>
<linearGradient id="paint6_linear" x1="18.3006" y1="10.6607" x2="18.6107" y2="5.6468" gradientUnits="userSpaceOnUse">
<stop stop-color="#FCCECE"/>
<stop offset="1" stop-color="#FBA5C2"/>
</linearGradient>
<linearGradient id="paint7_linear" x1="0.906023" y1="1.63209" x2="7.11746" y2="12.7845" gradientUnits="userSpaceOnUse">
<stop stop-color="#3FA9F5"/>
<stop offset="1" stop-color="#666AD6"/>
</linearGradient>
<clipPath id="clip0">
<rect width="24" height="24" fill="white"/>
</clipPath>
</defs>
</svg>
