<svg width="30" height="30" viewBox="0 0 30 30" fill="none" xmlns="http://www.w3.org/2000/svg">
<g clip-path="url(#clip0)">
<path d="M16.1039 1.35991L20.0719 9.39999L28.9447 10.6893C29.9544 10.8359 30.3575 12.0768 29.6269 12.789L23.2064 19.0472L24.7221 27.8841C24.8946 28.8897 23.8391 29.6566 22.936 29.1818L14.9999 25.0096L7.06393 29.1818C6.16088 29.6565 5.10538 28.8897 5.27788 27.8841L6.79352 19.0472L0.373076 12.7889C-0.357527 12.0767 0.0456554 10.836 1.05534 10.6892L9.9281 9.39994L13.8961 1.35991C14.3477 0.444972 15.6523 0.444972 16.1039 1.35991Z" fill="url(#paint0_linear)"/>
<path d="M20.0718 9.40022L16.1038 1.36014C15.8781 0.902699 15.439 0.67395 15 0.67395V15.8959L20.0718 9.40022Z" fill="url(#paint1_linear)"/>
<path d="M23.2064 19.0474L29.6267 12.789C29.9872 12.4377 30.0712 11.9579 29.9431 11.5441L14.9999 15.8957L23.2064 19.0474Z" fill="url(#paint2_linear)"/>
<path d="M24.236 29.0855L14.9999 15.8958V25.0098L22.9359 29.182C23.3891 29.4203 23.8805 29.3457 24.236 29.0855Z" fill="url(#paint3_linear)"/>
<path d="M14.9999 15.8958L6.79341 19.0474L5.27783 27.8843C5.19188 28.3853 5.4109 28.8269 5.76381 29.0854L14.9999 15.8958Z" fill="url(#paint4_linear)"/>
<path d="M0.0567627 11.5441L15 15.8957L9.92814 9.40002L1.05537 10.6894C0.543792 10.7637 0.188364 11.119 0.0567627 11.5441Z" fill="url(#paint5_linear)"/>
<path d="M6.79342 19.0474L0.372968 12.7891C0.0125596 12.4378 -0.0715222 11.958 0.0566219 11.5442L14.9999 15.8958L6.79342 19.0474Z" fill="url(#paint6_linear)"/>
</g>
<defs>
<linearGradient id="paint0_linear" x1="15.0005" y1="4.01523" x2="15.0005" y2="37.1168" gradientUnits="userSpaceOnUse">
<stop stop-color="#FFCF95"/>
<stop offset="0.427" stop-color="#FFC954"/>
<stop offset="1" stop-color="#FFC200"/>
</linearGradient>
<linearGradient id="paint1_linear" x1="22.7756" y1="8.28414" x2="12.7691" y2="8.28414" gradientUnits="userSpaceOnUse">
<stop stop-color="#FFC200" stop-opacity="0"/>
<stop offset="0.203" stop-color="#FFBB00" stop-opacity="0.203"/>
<stop offset="0.499" stop-color="#FFA700" stop-opacity="0.499"/>
<stop offset="0.852" stop-color="#FF8800" stop-opacity="0.852"/>
<stop offset="1" stop-color="#FF7800"/>
</linearGradient>
<linearGradient id="paint2_linear" x1="24.485" y1="23.6153" x2="21.8349" y2="10.5649" gradientUnits="userSpaceOnUse">
<stop stop-color="#FFC200" stop-opacity="0"/>
<stop offset="0.203" stop-color="#FFBB00" stop-opacity="0.203"/>
<stop offset="0.499" stop-color="#FFA700" stop-opacity="0.499"/>
<stop offset="0.852" stop-color="#FF8800" stop-opacity="0.852"/>
<stop offset="1" stop-color="#FF7800"/>
</linearGradient>
<linearGradient id="paint3_linear" x1="11.6353" y1="30.4736" x2="22.0143" y2="20.0946" gradientUnits="userSpaceOnUse">
<stop stop-color="#FFC200" stop-opacity="0"/>
<stop offset="0.203" stop-color="#FFBB00" stop-opacity="0.203"/>
<stop offset="0.499" stop-color="#FFA700" stop-opacity="0.499"/>
<stop offset="0.852" stop-color="#FF8800" stop-opacity="0.852"/>
<stop offset="1" stop-color="#FF7800"/>
</linearGradient>
<linearGradient id="paint4_linear" x1="4.23383" y1="17.3483" x2="11.884" y2="23.7485" gradientUnits="userSpaceOnUse">
<stop stop-color="#FFC200" stop-opacity="0"/>
<stop offset="0.203" stop-color="#FFBB00" stop-opacity="0.203"/>
<stop offset="0.499" stop-color="#FFA700" stop-opacity="0.499"/>
<stop offset="0.852" stop-color="#FF8800" stop-opacity="0.852"/>
<stop offset="1" stop-color="#FF7800"/>
</linearGradient>
<linearGradient id="paint5_linear" x1="9.96881" y1="6.79092" x2="6.86873" y2="15.5912" gradientUnits="userSpaceOnUse">
<stop stop-color="#FFC200" stop-opacity="0"/>
<stop offset="0.203" stop-color="#FFBB00" stop-opacity="0.203"/>
<stop offset="0.499" stop-color="#FFA700" stop-opacity="0.499"/>
<stop offset="0.852" stop-color="#FF8800" stop-opacity="0.852"/>
<stop offset="1" stop-color="#FF7800"/>
</linearGradient>
<linearGradient id="paint6_linear" x1="21.6381" y1="7.71003" x2="-1.13748" y2="17.4103" gradientUnits="userSpaceOnUse">
<stop stop-color="#FFC200" stop-opacity="0"/>
<stop offset="0.203" stop-color="#FFBB00" stop-opacity="0.203"/>
<stop offset="0.499" stop-color="#FFA700" stop-opacity="0.499"/>
<stop offset="0.852" stop-color="#FF8800" stop-opacity="0.852"/>
<stop offset="1" stop-color="#FF7800"/>
</linearGradient>
<clipPath id="clip0">
<rect width="30" height="30" fill="white"/>
</clipPath>
</defs>
</svg>
