<svg width="30" height="30" viewBox="0 0 30 30" fill="none" xmlns="http://www.w3.org/2000/svg">
<g clip-path="url(#clip0)">
<path d="M20.6991 24.7167L9.98706 14.0047C9.78842 13.7846 9.51318 13.625 9.1763 13.576L8.40695 13.4642L6.23989 11.2996C5.3783 12.7879 4.88489 14.516 4.88489 16.3596C4.88489 21.9459 9.41353 26.4746 14.9999 26.4746C17.1139 26.4746 19.0762 25.8257 20.6991 24.7167Z" fill="url(#paint0_linear)"/>
<path d="M9.97076 9.12863C10.2702 9.52757 10.3969 10.0354 10.3112 10.535L10.0316 12.1647C9.90834 12.8836 10.208 13.5196 10.701 13.9083L21.1686 24.3758C23.5684 22.5263 25.115 19.6239 25.115 16.3598C25.115 10.7734 20.5863 6.24475 15 6.24475C12.7686 6.24475 10.7065 6.96781 9.03381 8.19169L9.97076 9.12863Z" fill="url(#paint1_linear)"/>
<path d="M25.115 16.3597C25.115 14.519 24.6232 12.7933 23.764 11.3065C23.7059 11.3806 23.6535 11.4623 23.609 11.5526L23.0647 12.6553C22.8666 13.0568 22.4836 13.335 22.0406 13.3994L20.8236 13.5762C19.7079 13.7383 19.2624 15.1095 20.0697 15.8964L21.0905 16.9172L21.0949 16.9215C21.3129 17.2168 21.4046 17.5907 21.3415 17.9587L21.1336 19.1707C21.048 19.6697 21.2365 20.115 21.5601 20.4072L23.2976 22.1448C24.4428 20.5054 25.115 18.5112 25.115 16.3597Z" fill="url(#paint2_linear)"/>
<path d="M15.7599 24.8516C15.614 24.7092 15.5152 24.5451 15.4593 24.3733C15.2417 23.7145 15.6458 22.9392 16.4176 22.8274L17.4793 22.6727C17.8658 22.6169 18.1999 22.3739 18.3729 22.0239L18.8476 21.0616C19.2358 20.2745 20.2793 20.1904 20.8087 20.8092L22.7287 22.7286L22.8446 22.7457C21.4535 24.4527 19.5158 25.6969 17.2982 26.2122C17.1587 26.2445 17.0187 26.2739 16.877 26.3004C16.8517 26.1004 16.7752 25.9092 16.654 25.7457L15.7599 24.8516Z" fill="url(#paint3_linear)"/>
<path d="M17.2982 26.2122C17.1588 26.2445 17.0188 26.2739 16.877 26.3004C16.2688 26.4145 15.6412 26.4745 15 26.4745C11.8353 26.4745 9.00998 25.0216 7.15527 22.7457L7.65586 22.6727C8.04233 22.6169 8.37645 22.3739 8.54939 22.0239L9.0241 21.0616C9.41292 20.2745 10.4564 20.1904 10.9859 20.8092L12.9053 22.7286L13.5823 22.8275C13.8888 22.8716 14.137 23.021 14.3117 23.2257L17.2982 26.2122Z" fill="url(#paint4_linear)"/>
<path d="M16.6402 1.92149L17.3719 3.40414C17.6383 3.94396 18.1533 4.31808 18.749 4.40467L20.3853 4.64243C21.8854 4.86043 22.4844 6.70396 21.3989 7.76208L20.2149 8.9162C19.7839 9.33638 19.5872 9.94179 19.6889 10.5351L19.9684 12.1647C20.2247 13.6588 18.6565 14.7981 17.3147 14.0927L15.8512 13.3233C15.3184 13.0432 14.6819 13.0432 14.149 13.3233L12.6856 14.0927C11.3438 14.7981 9.77556 13.6588 10.0318 12.1647L10.3113 10.5351C10.4131 9.94179 10.2164 9.33638 9.78533 8.9162L8.60133 7.76208C7.5158 6.70396 8.1148 4.86043 9.61497 4.64243L11.2512 4.40467C11.8469 4.31808 12.3619 3.94396 12.6283 3.40414L13.3601 1.92149C14.0308 0.562139 15.9693 0.562139 16.6402 1.92149Z" fill="url(#paint5_linear)"/>
<path d="M11.9069 4.17529C11.7076 4.29123 11.4858 4.37053 11.2511 4.40465L9.61485 4.64241C8.11468 4.86041 7.51568 6.70394 8.60121 7.76206L9.78521 8.91618C10.2163 9.33635 10.413 9.94176 10.3112 10.5351L10.0317 12.1647C9.77544 13.6588 11.3436 14.7982 12.6854 14.0928L14.1489 13.3234C14.6817 13.0432 15.3183 13.0432 15.8511 13.3234L17.3146 14.0928C17.9506 14.4271 18.6372 14.3465 19.1566 14.0106L11.9069 4.17529Z" fill="url(#paint6_linear)"/>
<path d="M21.3986 7.76222L20.2147 8.91663C19.9452 9.1791 19.7679 9.51281 19.6975 9.87128C19.6541 10.0873 19.6502 10.3119 19.6889 10.5348L19.9685 12.1646C20.1032 12.9505 19.7331 13.638 19.1571 14.0105C18.6375 14.3466 17.9508 14.427 17.3143 14.0926L15.8509 13.3238C15.5846 13.1836 15.2927 13.1139 15 13.1139V8.38163L15.0108 8.38475L15.0062 8.3801L15.0001 8.37081V0.902222C15.652 0.902222 16.3047 1.2421 16.6399 1.92193L17.3716 3.40387C17.5327 3.7314 17.7859 3.99775 18.0933 4.17581C18.2923 4.29193 18.5145 4.37093 18.7491 4.40499L20.3851 4.64269C21.2523 4.7681 21.8183 5.4371 21.9313 6.18346C22.0149 6.72858 21.857 7.31546 21.3986 7.76222Z" fill="url(#paint7_linear)"/>
<path d="M10.3028 9.87148C10.3455 10.0874 10.3495 10.3121 10.3112 10.5351L10.0317 12.1647C9.77542 13.6588 11.3436 14.7982 12.6854 14.0928L14.1489 13.3234C14.6817 13.0432 15.3182 13.0432 15.8511 13.3234L17.3145 14.0928C18.6563 14.7982 20.2245 13.6588 19.9683 12.1647L19.6888 10.5351C19.5871 9.94177 19.7838 9.33636 20.2148 8.91619L21.3988 7.76207C21.8571 7.31542 22.0141 6.72895 21.931 6.18372L10.3028 9.87148Z" fill="url(#paint8_linear)"/>
<path d="M19.6889 10.5351C19.6507 10.3121 19.6546 10.0874 19.6973 9.87148L8.06914 6.18372C7.98597 6.72895 8.14303 7.31542 8.60126 7.76207L9.78526 8.91619C10.2163 9.33636 10.413 9.94177 10.3113 10.5351L10.0317 12.1647C9.7755 13.6588 11.3437 14.7982 12.6855 14.0928L14.149 13.3234C14.6818 13.0432 15.3183 13.0432 15.8512 13.3234L17.3146 14.0928C18.6564 14.7982 20.2246 13.6588 19.9684 12.1647L19.6889 10.5351Z" fill="url(#paint9_linear)"/>
<path d="M20.3852 4.64237L18.7489 4.40461C18.5146 4.37055 18.2931 4.29143 18.094 4.17578L10.8507 14.0154C11.3692 14.3474 12.0524 14.4254 12.6854 14.0927L14.1489 13.3233C14.6817 13.0431 15.3182 13.0431 15.8511 13.3233L17.3145 14.0927C18.6563 14.7981 20.2245 13.6587 19.9683 12.1646L19.6888 10.535C19.5871 9.94166 19.7838 9.33625 20.2148 8.91608L21.3988 7.76196C22.4843 6.7039 21.8853 4.86037 20.3852 4.64237Z" fill="url(#paint10_linear)"/>
<path d="M6.39104 11.5524L6.93528 12.6551C7.13339 13.0566 7.51639 13.3349 7.95945 13.3993L9.17633 13.5761C10.292 13.7382 10.7376 15.1093 9.93022 15.8963L9.04963 16.7546C8.72904 17.0671 8.58275 17.5174 8.65845 17.9586L8.86633 19.1706C9.05692 20.2818 7.89057 21.1292 6.89269 20.6046L5.80428 20.0323C5.40798 19.824 4.93457 19.824 4.53833 20.0323L3.44992 20.6046C2.45198 21.1292 1.28569 20.2818 1.47628 19.1706L1.68416 17.9586C1.75986 17.5174 1.61357 17.0671 1.29298 16.7546L0.412394 15.8963C-0.394959 15.1093 0.0505705 13.7382 1.16628 13.5761L2.38316 13.3993C2.82622 13.3349 3.20922 13.0566 3.40734 12.6551L3.95157 11.5524C4.45039 10.5414 5.89204 10.5414 6.39104 11.5524Z" fill="url(#paint11_linear)"/>
<path d="M2.8708 13.2288C2.72251 13.315 2.55757 13.3739 2.38304 13.3993L1.16615 13.5762C0.0504485 13.7383 -0.395081 15.1094 0.412272 15.8963L1.29286 16.7547C1.61345 17.0672 1.75974 17.5175 1.68404 17.9587L1.47615 19.1707C1.28557 20.2819 2.45192 21.1293 3.4498 20.6046L4.53821 20.0324C4.93451 19.8241 5.40792 19.8241 5.80415 20.0324L6.89257 20.6046C7.36562 20.8533 7.87621 20.7934 8.26251 20.5435L2.8708 13.2288Z" fill="url(#paint12_linear)"/>
<path d="M9.93009 15.8964L9.04962 16.755C8.84921 16.9502 8.71738 17.1984 8.66497 17.465C8.63274 17.6256 8.62985 17.7926 8.65862 17.9584L8.8665 19.1706C8.96668 19.7551 8.69144 20.2664 8.26303 20.5434C7.87662 20.7934 7.36585 20.8533 6.8925 20.6045L5.80415 20.0327C5.60603 19.9284 5.38897 19.8766 5.17126 19.8766V16.357L5.17932 16.3593L5.17585 16.3558L5.17126 16.3489V10.7943C5.65615 10.7943 6.14156 11.0471 6.39091 11.5527L6.93509 12.6549C7.05485 12.8985 7.24315 13.0965 7.47179 13.229C7.61979 13.3154 7.78503 13.3741 7.95956 13.3995L9.17632 13.5763C9.82126 13.6695 10.2422 14.1671 10.3263 14.7222C10.3884 15.1276 10.271 15.5641 9.93009 15.8964Z" fill="url(#paint13_linear)"/>
<path d="M1.67785 17.465C1.70956 17.6256 1.7125 17.7927 1.68409 17.9585L1.47621 19.1705C1.28562 20.2817 2.45197 21.1291 3.44985 20.6045L4.53826 20.0322C4.93456 19.8239 5.40797 19.8239 5.80421 20.0322L6.89262 20.6045C7.89056 21.1291 9.05685 20.2817 8.86626 19.1705L8.65838 17.9585C8.58268 17.5173 8.72897 17.067 9.04956 16.7545L9.93015 15.8962C10.271 15.564 10.3878 15.1278 10.3259 14.7223L1.67785 17.465Z" fill="url(#paint14_linear)"/>
<path d="M8.65839 17.9585C8.62992 17.7926 8.63287 17.6255 8.66463 17.4649L0.0164542 14.7223C-0.0454282 15.1278 0.0713953 15.5639 0.412219 15.8962L1.29281 16.7545C1.6134 17.0671 1.75969 17.5173 1.68398 17.9585L1.4761 19.1705C1.28551 20.2817 2.45187 21.1291 3.44975 20.6045L4.53816 20.0322C4.93445 19.8239 5.40787 19.8239 5.8041 20.0322L6.89251 20.6045C7.89045 21.1291 9.05675 20.2817 8.86616 19.1705L8.65839 17.9585Z" fill="url(#paint15_linear)"/>
<path d="M9.17626 13.576L7.95938 13.3992C7.78509 13.3738 7.62038 13.315 7.47226 13.229L2.08521 20.5471C2.47079 20.794 2.97891 20.852 3.44973 20.6045L4.53815 20.0323C4.93444 19.8239 5.40785 19.8239 5.80409 20.0323L6.8925 20.6045C7.89044 21.1291 9.05674 20.2817 8.86615 19.1705L8.65826 17.9585C8.58256 17.5173 8.72885 17.067 9.04944 16.7545L9.93003 15.8962C10.7375 15.1092 10.292 13.7382 9.17626 13.576Z" fill="url(#paint16_linear)"/>
<path d="M11.1528 21.0619L11.6276 22.0239C11.8004 22.3741 12.1346 22.6169 12.521 22.6731L13.5826 22.8273C14.556 22.9687 14.9446 24.1648 14.2403 24.8514L13.4721 25.6002C13.1924 25.8728 13.0648 26.2656 13.1308 26.6505L13.3122 27.7078C13.4784 28.6772 12.4609 29.4165 11.5904 28.9588L10.6409 28.4596C10.2952 28.2778 9.88216 28.2778 9.53645 28.4596L8.58692 28.9588C7.71633 29.4165 6.69886 28.6772 6.86516 27.7078L7.04651 26.6505C7.11251 26.2656 6.98492 25.8728 6.70522 25.6002L5.93704 24.8514C5.23275 24.1648 5.62139 22.9687 6.59469 22.8273L7.65628 22.6731C8.04281 22.6169 8.37692 22.3741 8.54975 22.0239L9.02451 21.0619C9.45981 20.1799 10.7175 20.1799 11.1528 21.0619Z" fill="url(#paint17_linear)"/>
<path d="M8.08157 22.5243C7.95222 22.5995 7.80834 22.6509 7.65605 22.6731L6.59446 22.8273C5.6211 22.9688 5.23252 24.1649 5.93681 24.8514L6.70499 25.6002C6.98469 25.8729 7.11228 26.2656 7.04628 26.6506L6.86493 27.7079C6.69869 28.6773 7.71616 29.4165 8.58669 28.9588L9.53622 28.4596C9.88193 28.2779 10.2949 28.2779 10.6406 28.4596L11.5902 28.9588C12.0028 29.1758 12.4483 29.1235 12.7853 28.9055L8.08157 22.5243Z" fill="url(#paint18_linear)"/>
<path d="M14.2399 24.8515L13.4718 25.6005C13.297 25.7708 13.1819 25.9873 13.1362 26.2199C13.1081 26.36 13.1056 26.5057 13.1307 26.6504L13.312 27.7079C13.3994 28.2178 13.1593 28.6639 12.7856 28.9055C12.4485 29.1235 12.0029 29.1758 11.59 28.9587L10.6405 28.4599C10.4677 28.369 10.2783 28.3238 10.0884 28.3238V25.2534L10.0954 25.2554L10.0924 25.2524L10.0884 25.2463V20.4006C10.5114 20.4006 10.9349 20.6212 11.1524 21.0622L11.6271 22.0238C11.7316 22.2362 11.8959 22.409 12.0953 22.5246C12.2244 22.5999 12.3686 22.6512 12.5208 22.6733L13.5823 22.8275C14.1449 22.9089 14.5121 23.3429 14.5855 23.8272C14.6398 24.1808 14.5373 24.5616 14.2399 24.8515Z" fill="url(#paint19_linear)"/>
<path d="M7.04086 26.2199C7.06857 26.36 7.0711 26.5057 7.04628 26.6504L6.86492 27.7077C6.69869 28.6771 7.71616 29.4163 8.58669 28.9586L9.53622 28.4594C9.88193 28.2777 10.2949 28.2777 10.6406 28.4594L11.5902 28.9586C12.4608 29.4163 13.4782 28.677 13.3119 27.7077L13.1306 26.6504C13.0646 26.2654 13.1922 25.8727 13.4719 25.6L14.24 24.8512C14.5373 24.5614 14.6393 24.1809 14.5853 23.8271L7.04086 26.2199Z" fill="url(#paint20_linear)"/>
<path d="M13.1307 26.6503C13.1058 26.5057 13.1084 26.3599 13.1361 26.2198L5.59159 23.8271C5.53759 24.1809 5.63953 24.5614 5.93682 24.8512L6.705 25.6C6.9847 25.8727 7.11229 26.2654 7.04629 26.6504L6.86494 27.7077C6.6987 28.6771 7.71618 29.4163 8.58671 28.9586L9.53624 28.4595C9.88194 28.2777 10.2949 28.2777 10.6406 28.4595L11.5902 28.9586C12.4608 29.4163 13.4782 28.677 13.3119 27.7077L13.1307 26.6503Z" fill="url(#paint21_linear)"/>
<path d="M13.5824 22.8272L12.5208 22.673C12.3688 22.6509 12.2251 22.5996 12.0959 22.5245L7.39636 28.9087C7.73277 29.124 8.17601 29.1747 8.58672 28.9588L9.53624 28.4596C9.88195 28.2778 10.295 28.2778 10.6407 28.4596L11.5902 28.9588C12.4608 29.4165 13.4782 28.6772 13.312 27.7078L13.1306 26.6505C13.0646 26.2656 13.1922 25.8728 13.4719 25.6002L14.2401 24.8514C14.9444 24.1648 14.5558 22.9687 13.5824 22.8272Z" fill="url(#paint22_linear)"/>
<path d="M20.9757 21.0619L21.4505 22.0239C21.6233 22.3741 21.9575 22.6169 22.3439 22.6731L23.4055 22.8273C24.3789 22.9687 24.7675 24.1648 24.0632 24.8514L23.295 25.6002C23.0153 25.8728 22.8877 26.2656 22.9537 26.6505L23.135 27.7078C23.3013 28.6772 22.2838 29.4165 21.4133 28.9588L20.4637 28.4596C20.118 28.2778 19.705 28.2778 19.3593 28.4596L18.4098 28.9588C17.5392 29.4165 16.5217 28.6772 16.688 27.7078L16.8694 26.6505C16.9354 26.2656 16.8078 25.8728 16.5281 25.6002L15.7599 24.8514C15.0556 24.1648 15.4443 22.9687 16.4176 22.8273L17.4792 22.6731C17.8657 22.6169 18.1998 22.3741 18.3726 22.0239L18.8474 21.0619C19.2827 20.1799 20.5405 20.1799 20.9757 21.0619Z" fill="url(#paint23_linear)"/>
<path d="M17.9047 22.5243C17.7753 22.5995 17.6315 22.6509 17.4792 22.6731L16.4176 22.8273C15.4442 22.9688 15.0556 24.1649 15.7599 24.8514L16.5281 25.6002C16.8078 25.8729 16.9354 26.2656 16.8694 26.6506L16.688 27.7079C16.5218 28.6773 17.5393 29.4165 18.4098 28.9588L19.3593 28.4596C19.705 28.2779 20.118 28.2779 20.4638 28.4596L21.4133 28.9588C21.8259 29.1758 22.2714 29.1235 22.6084 28.9055L17.9047 22.5243Z" fill="url(#paint24_linear)"/>
<path d="M24.0631 24.8515L23.295 25.6005C23.1201 25.7708 23.0051 25.9873 22.9594 26.2199C22.9313 26.36 22.9287 26.5057 22.9539 26.6504L23.1352 27.7079C23.2226 28.2178 22.9825 28.6639 22.6087 28.9055C22.2717 29.1235 21.8261 29.1758 21.4131 28.9587L20.4637 28.4599C20.2909 28.369 20.1015 28.3238 19.9116 28.3238V25.2534L19.9187 25.2554L19.9157 25.2524L19.9117 25.2463V20.4006C20.3347 20.4006 20.7581 20.6212 20.9757 21.0622L21.4504 22.0238C21.5549 22.2362 21.7191 22.409 21.9186 22.5246C22.0477 22.5999 22.1919 22.6512 22.344 22.6733L23.4055 22.8275C23.9681 22.9089 24.3354 23.3429 24.4087 23.8272C24.463 24.1808 24.3605 24.5616 24.0631 24.8515Z" fill="url(#paint25_linear)"/>
<path d="M16.864 26.2199C16.8917 26.36 16.8942 26.5057 16.8694 26.6504L16.688 27.7077C16.5218 28.6771 17.5393 29.4163 18.4098 28.9586L19.3593 28.4594C19.705 28.2777 20.118 28.2777 20.4637 28.4594L21.4133 28.9586C22.2839 29.4163 23.3013 28.677 23.135 27.7077L22.9537 26.6504C22.8877 26.2654 23.0153 25.8727 23.295 25.6L24.0632 24.8512C24.3605 24.5614 24.4624 24.1809 24.4084 23.8271L16.864 26.2199Z" fill="url(#paint26_linear)"/>
<path d="M22.9538 26.6504C22.929 26.5057 22.9315 26.3599 22.9592 26.2199L15.4147 23.8271C15.3607 24.1809 15.4626 24.5614 15.7599 24.8512L16.5281 25.6C16.8078 25.8727 16.9354 26.2654 16.8694 26.6504L16.6881 27.7077C16.5218 28.6771 17.5393 29.4163 18.4098 28.9586L19.3594 28.4594C19.7051 28.2777 20.1181 28.2777 20.4638 28.4594L21.4133 28.9586C22.2839 29.4163 23.3014 28.677 23.1351 27.7077L22.9538 26.6504Z" fill="url(#paint27_linear)"/>
<path d="M23.4056 22.8272L22.344 22.673C22.192 22.6509 22.0483 22.5996 21.9191 22.5245L17.2195 28.9087C17.5559 29.124 17.9991 29.1747 18.4098 28.9588L19.3594 28.4596C19.7051 28.2778 20.1181 28.2778 20.4638 28.4596L21.4133 28.9588C22.2839 29.4165 23.3014 28.6772 23.1351 27.7078L22.9537 26.6505C22.8877 26.2656 23.0153 25.8728 23.295 25.6002L24.0632 24.8514C24.7675 24.1648 24.3789 22.9687 23.4056 22.8272Z" fill="url(#paint28_linear)"/>
<path d="M26.0484 11.5524L26.5927 12.6551C26.7908 13.0566 27.1738 13.3349 27.6169 13.3993L28.8338 13.5761C29.9495 13.7382 30.395 15.1093 29.5877 15.8963L28.7071 16.7546C28.3865 17.0671 28.2402 17.5174 28.3159 17.9586L28.5238 19.1706C28.7144 20.2818 27.548 21.1292 26.5501 20.6046L25.4617 20.0323C25.0654 19.824 24.592 19.824 24.1958 20.0323L23.1074 20.6046C22.1094 21.1292 20.9432 20.2818 21.1337 19.1706L21.3416 17.9586C21.4173 17.5174 21.271 17.0671 20.9505 16.7546L20.0699 15.8963C19.2625 15.1093 19.708 13.7382 20.8237 13.5761L22.0406 13.3993C22.4837 13.3349 22.8667 13.0566 23.0648 12.6551L23.609 11.5524C24.1079 10.5414 25.5495 10.5414 26.0484 11.5524Z" fill="url(#paint29_linear)"/>
<path d="M22.5283 13.2288C22.38 13.315 22.215 13.3739 22.0405 13.3993L20.8236 13.5762C19.7079 13.7383 19.2624 15.1094 20.0697 15.8963L20.9503 16.7547C21.2709 17.0672 21.4172 17.5175 21.3415 17.9587L21.1336 19.1707C20.943 20.2819 22.1094 21.1293 23.1073 20.6046L24.1957 20.0324C24.592 19.8241 25.0654 19.8241 25.4616 20.0324L26.55 20.6046C27.0231 20.8533 27.5337 20.7934 27.92 20.5435L22.5283 13.2288Z" fill="url(#paint30_linear)"/>
<path d="M29.5876 15.8964L28.7071 16.755C28.5067 16.9502 28.3749 17.1984 28.3224 17.465C28.2902 17.6256 28.2873 17.7926 28.3161 17.9584L28.524 19.1706C28.6242 19.7551 28.3489 20.2664 27.9205 20.5434C27.5341 20.7934 27.0233 20.8533 26.55 20.6045L25.4616 20.0327C25.2635 19.9284 25.0464 19.8766 24.8287 19.8766V16.357L24.8368 16.3593L24.8333 16.3558L24.8287 16.3489V10.7943C25.3136 10.7943 25.799 11.0471 26.0484 11.5527L26.5926 12.6549C26.7123 12.8985 26.9006 13.0965 27.1293 13.229C27.2773 13.3154 27.4425 13.3741 27.617 13.3995L28.8338 13.5763C29.4787 13.6695 29.8997 14.1671 29.9837 14.7222C30.0459 15.1276 29.9285 15.5641 29.5876 15.8964Z" fill="url(#paint31_linear)"/>
<path d="M21.3353 17.465C21.367 17.6256 21.37 17.7927 21.3416 17.9585L21.1337 19.1705C20.9431 20.2817 22.1094 21.1291 23.1073 20.6045L24.1957 20.0322C24.592 19.8239 25.0654 19.8239 25.4617 20.0322L26.5501 20.6045C27.548 21.1291 28.7143 20.2817 28.5237 19.1705L28.3158 17.9585C28.2401 17.5173 28.3864 17.067 28.707 16.7545L29.5876 15.8962C29.9284 15.564 30.0453 15.1278 29.9834 14.7223L21.3353 17.465Z" fill="url(#paint32_linear)"/>
<path d="M28.3159 17.9588C28.2874 17.7929 28.2903 17.6258 28.3221 17.4652L19.6739 14.7225C19.612 15.1281 19.7289 15.5642 20.0697 15.8964L20.9503 16.7548C21.2709 17.0673 21.4172 17.5175 21.3415 17.9588L21.1336 19.1708C20.943 20.2819 22.1093 21.1294 23.1072 20.6047L24.1956 20.0325C24.5919 19.8241 25.0653 19.8241 25.4616 20.0325L26.55 20.6047C27.5479 21.1294 28.7142 20.2819 28.5236 19.1708L28.3159 17.9588Z" fill="url(#paint33_linear)"/>
<path d="M28.8338 13.576L27.6169 13.3992C27.4426 13.3738 27.2779 13.315 27.1298 13.229L21.7428 20.5471C22.1284 20.794 22.6365 20.852 23.1073 20.6045L24.1957 20.0323C24.592 19.8239 25.0654 19.8239 25.4617 20.0323L26.5501 20.6045C27.548 21.1291 28.7143 20.2817 28.5237 19.1705L28.3159 17.9585C28.2402 17.5173 28.3864 17.067 28.707 16.7545L29.5876 15.8962C30.395 15.1092 29.9495 13.7382 28.8338 13.576Z" fill="url(#paint34_linear)"/>
</g>
<defs>
<linearGradient id="paint0_linear" x1="15.9565" y1="22.8252" x2="-3.49453" y2="11.4134" gradientUnits="userSpaceOnUse">
<stop stop-color="#EFDCFB" stop-opacity="0"/>
<stop offset="0.4856" stop-color="#BAAAD6" stop-opacity="0.486"/>
<stop offset="1" stop-color="#8679B2"/>
</linearGradient>
<linearGradient id="paint1_linear" x1="20.2374" y1="19.5915" x2="13.3256" y2="3.97381" gradientUnits="userSpaceOnUse">
<stop stop-color="#EFDCFB" stop-opacity="0"/>
<stop offset="0.4856" stop-color="#BAAAD6" stop-opacity="0.486"/>
<stop offset="1" stop-color="#8679B2"/>
</linearGradient>
<linearGradient id="paint2_linear" x1="27.6684" y1="22.5921" x2="22.492" y2="15.6509" gradientUnits="userSpaceOnUse">
<stop stop-color="#EFDCFB" stop-opacity="0"/>
<stop offset="0.4856" stop-color="#BAAAD6" stop-opacity="0.486"/>
<stop offset="1" stop-color="#8679B2"/>
</linearGradient>
<linearGradient id="paint3_linear" x1="22.7129" y1="27.3751" x2="17.5146" y2="22.1769" gradientUnits="userSpaceOnUse">
<stop stop-color="#EFDCFB" stop-opacity="0"/>
<stop offset="0.4856" stop-color="#BAAAD6" stop-opacity="0.486"/>
<stop offset="1" stop-color="#8679B2"/>
</linearGradient>
<linearGradient id="paint4_linear" x1="16.7536" y1="29.0403" x2="6.24655" y2="18.5333" gradientUnits="userSpaceOnUse">
<stop stop-color="#EFDCFB" stop-opacity="0"/>
<stop offset="0.4856" stop-color="#BAAAD6" stop-opacity="0.486"/>
<stop offset="1" stop-color="#8679B2"/>
</linearGradient>
<linearGradient id="paint5_linear" x1="15" y1="2.5142" x2="15" y2="11.6067" gradientUnits="userSpaceOnUse">
<stop stop-color="#FFD945"/>
<stop offset="0.3043" stop-color="#FFCD3E"/>
<stop offset="0.8558" stop-color="#FFAD2B"/>
<stop offset="1" stop-color="#FFA325"/>
</linearGradient>
<linearGradient id="paint6_linear" x1="14.3773" y1="8.10276" x2="16.6484" y2="2.37317" gradientUnits="userSpaceOnUse">
<stop stop-color="#FBB27E" stop-opacity="0"/>
<stop offset="1" stop-color="#FF7044"/>
</linearGradient>
<linearGradient id="paint7_linear" x1="19.5449" y1="8.17952" x2="11.1828" y2="6.55352" gradientUnits="userSpaceOnUse">
<stop stop-color="#FBB27E" stop-opacity="0"/>
<stop offset="1" stop-color="#FF7044"/>
</linearGradient>
<linearGradient id="paint8_linear" x1="16.104" y1="11.6878" x2="15.6394" y2="3.5193" gradientUnits="userSpaceOnUse">
<stop stop-color="#FBB27E" stop-opacity="0"/>
<stop offset="1" stop-color="#FF7044"/>
</linearGradient>
<linearGradient id="paint9_linear" x1="13.4387" y1="10.419" x2="17.1164" y2="5.57977" gradientUnits="userSpaceOnUse">
<stop stop-color="#FBB27E" stop-opacity="0"/>
<stop offset="1" stop-color="#FF7044"/>
</linearGradient>
<linearGradient id="paint10_linear" x1="16.4175" y1="9.66119" x2="11.3847" y2="7.37708" gradientUnits="userSpaceOnUse">
<stop stop-color="#FBB27E" stop-opacity="0"/>
<stop offset="1" stop-color="#FF7044"/>
</linearGradient>
<linearGradient id="paint11_linear" x1="5.17122" y1="11.9933" x2="5.17122" y2="18.7556" gradientUnits="userSpaceOnUse">
<stop stop-color="#FFD945"/>
<stop offset="0.3043" stop-color="#FFCD3E"/>
<stop offset="0.8558" stop-color="#FFAD2B"/>
<stop offset="1" stop-color="#FFA325"/>
</linearGradient>
<linearGradient id="paint12_linear" x1="4.7081" y1="16.1497" x2="6.39721" y2="11.8885" gradientUnits="userSpaceOnUse">
<stop stop-color="#FBB27E" stop-opacity="0"/>
<stop offset="1" stop-color="#FF7044"/>
</linearGradient>
<linearGradient id="paint13_linear" x1="8.55144" y1="16.2067" x2="2.33232" y2="14.9974" gradientUnits="userSpaceOnUse">
<stop stop-color="#FBB27E" stop-opacity="0"/>
<stop offset="1" stop-color="#FF7044"/>
</linearGradient>
<linearGradient id="paint14_linear" x1="5.99232" y1="18.8158" x2="5.6468" y2="12.7406" gradientUnits="userSpaceOnUse">
<stop stop-color="#FBB27E" stop-opacity="0"/>
<stop offset="1" stop-color="#FF7044"/>
</linearGradient>
<linearGradient id="paint15_linear" x1="4.00992" y1="17.8721" x2="6.74521" y2="14.2731" gradientUnits="userSpaceOnUse">
<stop stop-color="#FBB27E" stop-opacity="0"/>
<stop offset="1" stop-color="#FF7044"/>
</linearGradient>
<linearGradient id="paint16_linear" x1="6.22538" y1="17.3087" x2="2.48238" y2="15.61" gradientUnits="userSpaceOnUse">
<stop stop-color="#FBB27E" stop-opacity="0"/>
<stop offset="1" stop-color="#FF7044"/>
</linearGradient>
<linearGradient id="paint17_linear" x1="10.0887" y1="21.4464" x2="10.0887" y2="27.3458" gradientUnits="userSpaceOnUse">
<stop stop-color="#FFD945"/>
<stop offset="0.3043" stop-color="#FFCD3E"/>
<stop offset="0.8558" stop-color="#FFAD2B"/>
<stop offset="1" stop-color="#FFA325"/>
</linearGradient>
<linearGradient id="paint18_linear" x1="9.6844" y1="25.0725" x2="11.158" y2="21.355" gradientUnits="userSpaceOnUse">
<stop stop-color="#FBB27E" stop-opacity="0"/>
<stop offset="1" stop-color="#FF7044"/>
</linearGradient>
<linearGradient id="paint19_linear" x1="13.0372" y1="25.1222" x2="7.61173" y2="24.0673" gradientUnits="userSpaceOnUse">
<stop stop-color="#FBB27E" stop-opacity="0"/>
<stop offset="1" stop-color="#FF7044"/>
</linearGradient>
<linearGradient id="paint20_linear" x1="10.8048" y1="27.3983" x2="10.5033" y2="22.0985" gradientUnits="userSpaceOnUse">
<stop stop-color="#FBB27E" stop-opacity="0"/>
<stop offset="1" stop-color="#FF7044"/>
</linearGradient>
<linearGradient id="paint21_linear" x1="9.07541" y1="26.575" x2="11.4616" y2="23.4353" gradientUnits="userSpaceOnUse">
<stop stop-color="#FBB27E" stop-opacity="0"/>
<stop offset="1" stop-color="#FF7044"/>
</linearGradient>
<linearGradient id="paint22_linear" x1="11.0081" y1="26.0835" x2="7.74283" y2="24.6016" gradientUnits="userSpaceOnUse">
<stop stop-color="#FBB27E" stop-opacity="0"/>
<stop offset="1" stop-color="#FF7044"/>
</linearGradient>
<linearGradient id="paint23_linear" x1="19.9116" y1="21.4464" x2="19.9116" y2="27.3458" gradientUnits="userSpaceOnUse">
<stop stop-color="#FFD945"/>
<stop offset="0.3043" stop-color="#FFCD3E"/>
<stop offset="0.8558" stop-color="#FFAD2B"/>
<stop offset="1" stop-color="#FFA325"/>
</linearGradient>
<linearGradient id="paint24_linear" x1="19.5075" y1="25.0725" x2="20.981" y2="21.355" gradientUnits="userSpaceOnUse">
<stop stop-color="#FBB27E" stop-opacity="0"/>
<stop offset="1" stop-color="#FF7044"/>
</linearGradient>
<linearGradient id="paint25_linear" x1="22.8604" y1="25.1222" x2="17.435" y2="24.0673" gradientUnits="userSpaceOnUse">
<stop stop-color="#FBB27E" stop-opacity="0"/>
<stop offset="1" stop-color="#FF7044"/>
</linearGradient>
<linearGradient id="paint26_linear" x1="20.6278" y1="27.3983" x2="20.3264" y2="22.0985" gradientUnits="userSpaceOnUse">
<stop stop-color="#FBB27E" stop-opacity="0"/>
<stop offset="1" stop-color="#FF7044"/>
</linearGradient>
<linearGradient id="paint27_linear" x1="18.8985" y1="26.5751" x2="21.2848" y2="23.4353" gradientUnits="userSpaceOnUse">
<stop stop-color="#FBB27E" stop-opacity="0"/>
<stop offset="1" stop-color="#FF7044"/>
</linearGradient>
<linearGradient id="paint28_linear" x1="20.8313" y1="26.0835" x2="17.566" y2="24.6016" gradientUnits="userSpaceOnUse">
<stop stop-color="#FBB27E" stop-opacity="0"/>
<stop offset="1" stop-color="#FF7044"/>
</linearGradient>
<linearGradient id="paint29_linear" x1="24.8287" y1="11.9933" x2="24.8287" y2="18.7556" gradientUnits="userSpaceOnUse">
<stop stop-color="#FFD945"/>
<stop offset="0.3043" stop-color="#FFCD3E"/>
<stop offset="0.8558" stop-color="#FFAD2B"/>
<stop offset="1" stop-color="#FFA325"/>
</linearGradient>
<linearGradient id="paint30_linear" x1="24.3656" y1="16.1497" x2="26.0547" y2="11.8885" gradientUnits="userSpaceOnUse">
<stop stop-color="#FBB27E" stop-opacity="0"/>
<stop offset="1" stop-color="#FF7044"/>
</linearGradient>
<linearGradient id="paint31_linear" x1="28.2089" y1="16.2067" x2="21.9898" y2="14.9974" gradientUnits="userSpaceOnUse">
<stop stop-color="#FBB27E" stop-opacity="0"/>
<stop offset="1" stop-color="#FF7044"/>
</linearGradient>
<linearGradient id="paint32_linear" x1="25.6498" y1="18.8158" x2="25.3043" y2="12.7406" gradientUnits="userSpaceOnUse">
<stop stop-color="#FBB27E" stop-opacity="0"/>
<stop offset="1" stop-color="#FF7044"/>
</linearGradient>
<linearGradient id="paint33_linear" x1="23.6674" y1="17.8724" x2="26.4027" y2="14.2734" gradientUnits="userSpaceOnUse">
<stop stop-color="#FBB27E" stop-opacity="0"/>
<stop offset="1" stop-color="#FF7044"/>
</linearGradient>
<linearGradient id="paint34_linear" x1="25.8829" y1="17.3087" x2="22.1399" y2="15.61" gradientUnits="userSpaceOnUse">
<stop stop-color="#FBB27E" stop-opacity="0"/>
<stop offset="1" stop-color="#FF7044"/>
</linearGradient>
<clipPath id="clip0">
<rect width="30" height="30" fill="white"/>
</clipPath>
</defs>
</svg>
