<svg width="14" height="14" viewBox="0 0 14 14" fill="none" xmlns="http://www.w3.org/2000/svg">
<path fill-rule="evenodd" clip-rule="evenodd" d="M9.24568 1.45883C9.61376 1.45883 9.98126 1.51075 10.3307 1.628C12.4838 2.328 13.2596 4.6905 12.6115 6.7555C12.244 7.81075 11.6432 8.77383 10.8563 9.56075C9.72985 10.6516 8.49376 11.6199 7.16318 12.4541L7.01735 12.5422L6.86568 12.4483C5.53043 11.6199 4.28735 10.6516 3.15043 9.55492C2.36876 8.768 1.76735 7.81075 1.39401 6.7555C0.734847 4.6905 1.51068 2.328 3.6871 1.61575C3.85626 1.55742 4.03068 1.51658 4.20568 1.49383H4.27568C4.4396 1.46992 4.60235 1.45883 4.76568 1.45883H4.82985C5.19735 1.46992 5.55318 1.53408 5.89793 1.65133H5.93235C5.95568 1.66242 5.97318 1.67467 5.98485 1.68575C6.11376 1.72717 6.23568 1.77383 6.35235 1.838L6.57401 1.93717C6.62758 1.96573 6.6877 2.00938 6.73966 2.04711C6.77258 2.07101 6.80222 2.09253 6.82485 2.10633C6.83437 2.11195 6.84404 2.1176 6.85379 2.12329C6.90381 2.15249 6.95591 2.1829 6.99985 2.21658C7.64793 1.72133 8.43485 1.453 9.24568 1.45883ZM10.7973 5.65884C11.0365 5.65243 11.2407 5.46051 11.2582 5.21493V5.14551C11.2757 4.32826 10.7804 3.58801 10.0273 3.30218C9.78817 3.21993 9.52567 3.34884 9.43817 3.59384C9.3565 3.83884 9.48483 4.10718 9.72983 4.19409C10.1038 4.33409 10.354 4.70218 10.354 5.10993V5.12801C10.3429 5.26159 10.3832 5.39051 10.4648 5.48968C10.5465 5.58884 10.669 5.64659 10.7973 5.65884Z" fill="#292A2B"/>
</svg>
